<?xml version="1.0" encoding="UTF-8"?>
<svg version="1.1" viewBox="0 0 2000 2000" width="1280" height="1280" xmlns="http://www.w3.org/2000/svg">
<path transform="translate(344,17)" d="m0 0h1312l31 3 24 4 28 7 30 10 25 11 27 14 22 14 19 14 14 12 10 9 12 11 7 8 12 13 13 17 10 14 12 19 13 24 12 28 10 30 6 24 5 31 2 23v1286l-3 31-5 27-7 27-8 23-10 23-8 16-11 20-15 22-10 13-9 11-11 12-10 11-8 7-13 12-14 11-18 13-25 15-23 12-21 9-22 8-29 8-26 5-25 3-13 1h-1312l-31-3-28-5-27-7-24-8-26-11-20-10-17-10-15-10-15-11-16-13-12-11-11-10-7-8-12-13-13-17-10-14-12-19-13-24-10-23-9-25-7-25-5-26-3-23-1-14v-1286l3-31 5-27 7-27 9-26 9-20 8-16 11-20 15-22 10-13 9-11 11-12 10-11 8-7 13-12 14-11 18-13 18-11 18-10 23-11 29-11 28-8 24-5 30-4zm304 492-24 3-29 6-25 8-20 8-25 12-18 11-17 12-13 10-11 10-8 7-12 12-7 8-13 16-14 20-12 21-11 22-10 26-8 28-5 28-2 18v46l3 25 6 29 8 25 8 20 9 19 13 22 14 20 11 13 7 8 11 12 14 13 11 9 16 12 19 12 22 12 23 10 30 10 26 6 29 4 14 1h31l23-2 25-4 28-7 26-9 24-11 19-10 19-12 19-14 15-13 16-15 11-12 11-14 10-13 12-19 10-18 11-25 10-30 6-28 3-23 1-15v-22l-2-25-5-30-7-26-7-20-9-20-12-23-13-20-9-12-9-11-9-10-11-12-13-12-11-9-16-12-22-14-27-14-27-11-23-7-26-6-21-3-11-1zm656 0-24 3-26 6-27 9-22 10-19 11-16 11-14 11-13 12-13 13-9 11-14 19-12 21-10 21-8 22-6 24-4 26-1 13v32l1 23 3 25 5 23 6 18 8 18 6 10 5-2 12-10 21-14 19-11 17-9 30-13 10-4-8-21-4-16-2-16v-21l2-16 5-19 7-16 7-13 8-11 12-14 13-11 14-9 16-8 15-5 19-4 11-1h15l21 3 20 6 17 8 15 10 11 9 12 12 11 15 8 14 7 16 5 17 2 13v28l-3 18-5 18-5 12 1 3 24 10 27 14 25 15 15 10 19 13 3-1 10-23 8-25 6-26 3-22 1-12v-35l-3-26-5-23-6-20-8-20-8-16-10-18-12-17-13-16-14-15-14-13-17-13-18-12-16-9-21-10-25-9-28-7-19-3-10-1zm7 368-32 3-31 6-27 8-28 11-22 11-23 14-19 14-14 12-13 12-9 9-9 11-11 13-16 24-10 18-12 25-10 28-7 28-4 25-2 27v22l2 25 4 24 7 27 10 27 14 29 13 21 13 18 11 13 9 10 19 19 11 9 17 13 15 10 17 10 24 12 26 10 24 7 23 5 20 3 11 1h50l31-4 27-6 22-7 21-8 25-12 17-10 12-8 16-12 11-9 12-11 16-16 9-11 11-14 12-18 9-16 8-16 8-19 7-21 6-25 4-29v-56l-3-26-6-29-9-29-11-26-12-23-12-19-13-17-9-11-12-13-14-14-11-9-15-12-20-13-16-9-16-8-19-8-27-9-26-6-19-3-24-2zm-908 349v17l3 26 5 23 6 20 8 20 8 16 10 18 12 17 13 16 14 15 14 13 17 13 18 12 16 9 21 10 25 9 28 7 19 3 10 1h46l24-3 23-5 33-11 29-14 18-11 19-14 10-9 8-7 11-11 9-11 13-17 12-20 8-16 8-19 7-24 4-20 2-18v-35h-128l-3 25-6 21-6 14-9 15-10 13-11 12-15 12-15 9-17 8-17 5-22 3h-14l-21-3-17-5-18-8-16-10-14-12-10-10-11-15-8-14-7-16-5-17-2-13-1-14z" fill="#D8B432"/>
<path transform="translate(659,636)" d="m0 0h19l21 2 24 5 21 7 21 10 17 11 10 8 10 9 10 10 13 17 11 19 7 16 6 18 4 19 2 17v28l-3 22-6 23-8 19-9 17-9 13-9 11-11 12-8 7-13 10-18 11-16 8-19 7-21 5-12 2-11 1h-27l-23-3-23-6-20-8-19-10-17-12-13-11-14-14-13-17-11-18-8-17-7-21-4-19-1-8v-36l3-20 6-21 6-16 10-19 12-17 13-15 14-13 15-11 15-9 21-10 26-8 24-4z" fill="#D8B432"/>
<path transform="translate(1313 1e3)" d="m0 0h21l22 3 21 5 20 7 19 9 15 9 16 12 10 9 15 15 12 16 9 15 9 19 6 18 4 19 1 7 1 19-1 19-3 19-5 19-8 20-9 17-12 17-13 15-7 7-11 9-14 10-16 9-17 8-18 6-24 5-21 2h-16l-21-2-23-5-20-7-19-9-16-10-13-10-10-9-14-14-10-13-10-16-8-16-6-15-5-17-3-17-1-10v-25l3-23 5-19 7-19 11-21 12-17 10-11 6-7 8-7 14-11 18-11 21-10 18-6 17-4z" fill="#D8B432"/>
</svg>
