<?xml version="1.0" encoding="UTF-8"?>
<svg xmlns:xodm="http://www.corel.com/coreldraw/odm/2003" xmlns="http://www.w3.org/2000/svg" xmlns:xlink="http://www.w3.org/1999/xlink" version="1.1" id="Layer_1" x="0px" y="0px" viewBox="0 0 2500 2500" style="enable-background:new 0 0 2500 2500;" xml:space="preserve">
<style type="text/css">
	.st0{fill-rule:evenodd;clip-rule:evenodd;}
	.st1{fill-rule:evenodd;clip-rule:evenodd;fill:#FFFFFF;}
</style>
<g id="Layer_x0020_1">
	<g id="_2987019320784">
		<circle class="st0" cx="1250" cy="1250" r="1250"></circle>
		<path class="st1" d="M1960.3,430.2l-38.5,103.4l-19.6,50.8c-148.7,380.7-264.3,561.4-387.2,561.4c-70.8,0-112.8-21.2-167.1-70.8    l-15.7-14.7c-39.1-37.3-55.5-46.5-93.1-46.5c-19.6,0-54.6,26-99,86.5c-46,62.8-96.4,155.6-150.6,277.8l-5.1,11.4h527.4    l-65.7,140.9H953.9v578.7H809.2v-1679H1960.3L1960.3,430.2z M1755.1,571.2l-801.2-0.1v559.6c96-172.2,187.2-258.7,285.3-258.7    c76.3,0,121.2,22.2,178,74l16.2,15.2c36.5,34.8,50.5,42.8,81.6,42.8C1549.5,1003.9,1640.6,854.3,1755.1,571.2L1755.1,571.2z"></path>
	</g>
</g>
</svg>
