<?xml version="1.0" encoding="UTF-8"?>
<svg version="1.1" viewBox="0 0 1600 1600" width="1280" height="1280" xmlns="http://www.w3.org/2000/svg">
<path transform="translate(0)" d="m0 0h1600v1600h-1600z" fill="#2981FD"/>
<path transform="translate(1088,433)" d="m0 0h41l28 3 25 5 29 9 21 9 20 10 20 13 11 8 13 10 14 12 14 14 9 11 10 12 9 13 12 19 13 26 11 30 5 19 6 35 1 11v46l-3 23-5 26-7 23-10 25-14 27-14 21-16 21-14 15-7 7-8 7-13 11-15 11-19 12-20 11-32 13-21 6-28 5-29 4h-30l-27-4 2-6 3-7v-59l-1-10v-127l1-18 2-4 6 2 10 4 8 2h19l12-3 17-9 10-8 7-10 6-12 4-13v-18l-5-16-6-12-7-9-9-8-14-7-15-4h-20l-12 3-12 6-10 8-8 9-7 14-3 10-1 7-1 257-1 163-3 10-8 11-8 5-14 3h-162l-8-2-8-4-6-5-6-10-2-8-1-23v-384l1-26 3-29 5-24 12-36 8-18 10-19 13-21 10-13 9-11 15-16 9-9 22-18 21-14 21-12 19-9 25-9 24-7 24-4z" fill="#FEFEFE"/>
<path transform="translate(288,433)" d="m0 0h431l18 3 15 5 14 8 12 9 13 13 10 15 7 15 4 16 2 18-1 17-5 21-7 16-8 12-12 14-14 11-10 6-11 5-16 5-13 2-69 1v477l-1 19-6 12-9 9-10 4-6 1h-156l-9-2-9-5-7-8-4-9-1-5-1-16-1-163v-190l1-124-136-1-10-3-10-6-6-8-4-11-1-33v-117l2-11 6-10 9-8z" fill="#FEFEFE"/>
</svg>
